<?xml version="1.0" encoding="UTF-8"?>
<svg width="36px" height="40px" viewBox="0 0 36 40" version="1.1" xmlns="http://www.w3.org/2000/svg" xmlns:xlink="http://www.w3.org/1999/xlink">
    <title>beiyaoqingye_icon_xunlianchangjieshao</title>
    <g id="页面-1" stroke="none" stroke-width="1" fill="none" fill-rule="evenodd">
        <g id="老带新-切图" transform="translate(-532.000000, -74.000000)" fill="#D40620" fill-rule="nonzero">
            <g id="beiyaoqingye_icon_xunlianchangjieshao" transform="translate(532.000000, 74.000000)">
                <path d="M18.143707,0 C27.6079308,0 35.2772155,7.09666665 35.2857143,15.875 C35.2857143,19.2416667 34.1502794,22.355 32.2227597,24.925 C32.1394718,25.0583333 32.0527845,25.1983333 31.9440003,25.3316667 L20.2700978,38.945 C19.6836831,39.6616667 18.920494,40 18.1471065,40 C17.373719,40 16.6003315,39.6566666 16.0207157,38.945 L4.34171402,25.335 C4.22613084,25.2066667 4.14624245,25.0616667 4.05105628,24.9133333 C2.07514717,22.2982911 1.00584656,19.1312197 1,15.8766666 C1,7.09666665 8.68288274,0 18.143707,0 Z M18.143707,7.54333331 C15.107391,7.54333331 12.3017192,9.1316576 10.7835612,11.7099999 C9.26540315,14.2883423 9.26540315,17.4649911 10.7835612,20.0433333 C12.3017192,22.6216757 15.107391,24.21 18.143707,24.21 C22.8374448,24.21 26.6424712,20.4790396 26.6424712,15.8766667 C26.6424712,11.2742937 22.8374448,7.54333331 18.143707,7.54333331 Z" id="形状"></path>
            </g>
        </g>
    </g>
</svg>