<?xml version="1.0" encoding="UTF-8"?>
<svg width="88px" height="88px" viewBox="0 0 88 88" version="1.1" xmlns="http://www.w3.org/2000/svg" xmlns:xlink="http://www.w3.org/1999/xlink">
    <title>beiyaoqingyemian_icon_morentouxiang</title>
    <g id="深港" stroke="none" stroke-width="1" fill="none" fill-rule="evenodd">
        <g id="老带新-切图" transform="translate(-54.000000, -1532.000000)">
            <circle id="头像备份-2" fill="#FFF0F2" cx="98" cy="1576" r="44"></circle>
            <g id="1-icon备份" transform="translate(71.000000, 1547.000000)" fill="#FFB5BE">
                <path d="M40.6315784,10.0690767 C43.3549293,17.5985337 39.4597203,25.9096727 31.9303009,28.631719 C24.4021998,31.3550836 16.0911022,27.4585368 13.3677513,19.930398 C10.6457186,12.4035774 14.5409277,4.09243838 22.0690288,1.36775568 C29.59713,-1.35429066 37.9082275,2.54093788 40.6315784,10.0690767" id="Fill-1"></path>
                <path d="M3.55320578,57.2333643 C1.99527761,57.2333643 0.781664657,55.9159845 0.950549307,54.3145701 C2.05288168,43.85939 9.0269013,34.5132976 19.6142669,31.2942383 C19.7464748,31.2540309 19.882936,31.237863 20.0186193,31.2432485 C20.2575208,31.2136166 20.5017741,31.2578619 20.7248275,31.360513 C21.0678335,31.5187609 21.4200038,31.6648359 21.77872,31.8000905 C23.4939355,32.4408497 25.2460863,32.7530903 26.9714173,32.7685988 C28.7199652,32.7617168 30.4970195,32.4497663 32.2361035,31.8000905 C32.5948197,31.6648359 32.94699,31.5187609 33.2899961,31.360513 C33.5130494,31.2578619 33.7573027,31.2136166 33.9966088,31.2415977 C34.1318875,31.237863 34.2683487,31.2540309 34.4005566,31.2942383 C44.9879222,34.5132976 51.9619418,43.85939 53.0642742,54.3145701 C53.2331588,55.9159845 52.0195459,57.2333643 50.4616177,57.2333643 Z" id="形状结合"></path>
            </g>
        </g>
    </g>
</svg>